<svg width="128" height="128" viewBox="0 0 128 128" fill="none" xmlns="http://www.w3.org/2000/svg">
<path d="M17.9219 29.5586V36.2852H21.2852C21.7461 36.2852 22.1797 36.1992 22.5859 36.0273C22.9922 35.8477 23.3477 35.6055 23.6523 35.3008C23.957 34.9961 24.1953 34.6406 24.3672 34.2344C24.5469 33.8203 24.6367 33.3828 24.6367 32.9219C24.6367 32.4609 24.5469 32.0273 24.3672 31.6211C24.1953 31.207 23.957 30.8477 23.6523 30.543C23.3477 30.2383 22.9922 30 22.5859 29.8281C22.1797 29.6484 21.7461 29.5586 21.2852 29.5586H17.9219ZM17.9219 43H14.5586V26.1953H21.2852C21.9023 26.1953 22.4961 26.2773 23.0664 26.4414C23.6367 26.5977 24.168 26.8242 24.6602 27.1211C25.1602 27.4102 25.6133 27.7617 26.0195 28.1758C26.4336 28.582 26.7852 29.0352 27.0742 29.5352C27.3711 30.0352 27.5977 30.5703 27.7539 31.1406C27.918 31.7109 28 32.3047 28 32.9219C28 33.5 27.9258 34.0625 27.7773 34.6094C27.6367 35.1562 27.4297 35.6758 27.1562 36.168C26.8906 36.6602 26.5625 37.1133 26.1719 37.5273C25.7812 37.9414 25.3438 38.3008 24.8594 38.6055L26.7227 43H23.1484L21.6836 39.6133L17.9219 39.6367V43ZM41.8633 36.6133C41.8633 37.5508 41.6953 38.4258 41.3594 39.2383C41.0234 40.043 40.5664 40.7422 39.9883 41.3359C39.4102 41.9219 38.7305 42.3867 37.9492 42.7305C37.1758 43.0664 36.3438 43.2344 35.4531 43.2344C34.5703 43.2344 33.7383 43.0664 32.957 42.7305C32.1836 42.3867 31.5039 41.9219 30.918 41.3359C30.3398 40.7422 29.8828 40.043 29.5469 39.2383C29.2109 38.4258 29.043 37.5508 29.043 36.6133C29.043 35.6602 29.2109 34.7773 29.5469 33.9648C29.8828 33.1523 30.3398 32.4531 30.918 31.8672C31.5039 31.2734 32.1836 30.8086 32.957 30.4727C33.7383 30.1367 34.5703 29.9688 35.4531 29.9688C36.3438 29.9688 37.1758 30.1289 37.9492 30.4492C38.7305 30.7617 39.4102 31.2109 39.9883 31.7969C40.5664 32.375 41.0234 33.0742 41.3594 33.8945C41.6953 34.707 41.8633 35.6133 41.8633 36.6133ZM38.6406 36.6133C38.6406 36.0977 38.5547 35.6328 38.3828 35.2188C38.2188 34.7969 37.9922 34.4375 37.7031 34.1406C37.4141 33.8359 37.0742 33.6055 36.6836 33.4492C36.3008 33.2852 35.8906 33.2031 35.4531 33.2031C35.0156 33.2031 34.6016 33.2852 34.2109 33.4492C33.8281 33.6055 33.4922 33.8359 33.2031 34.1406C32.9219 34.4375 32.6992 34.7969 32.5352 35.2188C32.3711 35.6328 32.2891 36.0977 32.2891 36.6133C32.2891 37.0977 32.3711 37.5469 32.5352 37.9609C32.6992 38.375 32.9219 38.7344 33.2031 39.0391C33.4922 39.3438 33.8281 39.5859 34.2109 39.7656C34.6016 39.9375 35.0156 40.0234 35.4531 40.0234C35.8906 40.0234 36.3008 39.9414 36.6836 39.7773C37.0742 39.6133 37.4141 39.3828 37.7031 39.0859C37.9922 38.7891 38.2188 38.4297 38.3828 38.0078C38.5547 37.5859 38.6406 37.1211 38.6406 36.6133ZM54.6016 32.9453L52.2578 35.3008C52.1406 34.9727 51.9805 34.6797 51.7773 34.4219C51.5742 34.1562 51.3438 33.9336 51.0859 33.7539C50.8359 33.5742 50.5625 33.4375 50.2656 33.3438C49.9688 33.25 49.6641 33.2031 49.3516 33.2031C48.9141 33.2031 48.5 33.293 48.1094 33.4727C47.7266 33.6523 47.3906 33.9062 47.1016 34.2344C46.8203 34.5547 46.5977 34.9375 46.4336 35.3828C46.2695 35.8281 46.1875 36.3203 46.1875 36.8594C46.1875 37.2969 46.2695 37.707 46.4336 38.0898C46.5977 38.4727 46.8203 38.8086 47.1016 39.0977C47.3906 39.3867 47.7266 39.6133 48.1094 39.7773C48.5 39.9414 48.9141 40.0234 49.3516 40.0234C49.6641 40.0234 49.9648 39.9805 50.2539 39.8945C50.543 39.8086 50.8125 39.6875 51.0625 39.5312C51.3203 39.3672 51.5469 39.1719 51.7422 38.9453C51.9453 38.7109 52.1094 38.4531 52.2344 38.1719L54.5781 40.5273C54.2812 40.9492 53.9375 41.3281 53.5469 41.6641C53.1641 42 52.7461 42.2852 52.293 42.5195C51.8477 42.7539 51.375 42.9297 50.875 43.0469C50.3828 43.1719 49.875 43.2344 49.3516 43.2344C48.4688 43.2344 47.6367 43.0703 46.8555 42.7422C46.082 42.4062 45.4023 41.9492 44.8164 41.3711C44.2383 40.793 43.7812 40.1172 43.4453 39.3438C43.1094 38.5703 42.9414 37.7422 42.9414 36.8594C42.9414 35.8984 43.1094 35 43.4453 34.1641C43.7812 33.3281 44.2383 32.6016 44.8164 31.9844C45.4023 31.3594 46.082 30.8672 46.8555 30.5078C47.6367 30.1484 48.4688 29.9688 49.3516 29.9688C49.875 29.9688 50.3867 30.0352 50.8867 30.168C51.3945 30.3008 51.875 30.4961 52.3281 30.7539C52.7891 31.0039 53.2109 31.3125 53.5938 31.6797C53.9844 32.0469 54.3203 32.4688 54.6016 32.9453ZM59.3945 43H56.1719V25.457H59.3945V36.5195L64.1641 30.4727H67.8438L63.6836 35.6992L67.8438 43H64.1641L61.6211 38.4414L59.3945 41.3945V43ZM73.0469 41.8047C73.0469 42.1484 73.0117 42.5195 72.9414 42.918C72.8789 43.3086 72.7734 43.6953 72.625 44.0781C72.4844 44.4688 72.2969 44.8359 72.0625 45.1797C71.8359 45.5312 71.5586 45.8281 71.2305 46.0703L69.9531 45.1797C70.1719 44.9297 70.3359 44.6914 70.4453 44.4648C70.5547 44.2461 70.6406 44.0234 70.7031 43.7969C70.4688 43.75 70.25 43.668 70.0469 43.5508C69.8438 43.4336 69.668 43.2852 69.5195 43.1055C69.3711 42.9336 69.2539 42.7383 69.168 42.5195C69.082 42.293 69.0391 42.0547 69.0391 41.8047C69.0391 41.5312 69.0898 41.2734 69.1914 41.0312C69.3008 40.7891 69.4453 40.5781 69.625 40.3984C69.8125 40.2188 70.0234 40.0781 70.2578 39.9766C70.5 39.8672 70.7578 39.8125 71.0312 39.8125C71.3125 39.8125 71.5742 39.8672 71.8164 39.9766C72.0664 40.0781 72.2812 40.2188 72.4609 40.3984C72.6484 40.5781 72.793 40.7891 72.8945 41.0312C72.9961 41.2734 73.0469 41.5312 73.0469 41.8047ZM17.9219 59.5586V66.2852H21.2852C21.7461 66.2852 22.1797 66.1992 22.5859 66.0273C22.9922 65.8477 23.3477 65.6055 23.6523 65.3008C23.957 64.9961 24.1953 64.6406 24.3672 64.2344C24.5469 63.8203 24.6367 63.3828 24.6367 62.9219C24.6367 62.4609 24.5469 62.0273 24.3672 61.6211C24.1953 61.207 23.957 60.8477 23.6523 60.543C23.3477 60.2383 22.9922 60 22.5859 59.8281C22.1797 59.6484 21.7461 59.5586 21.2852 59.5586H17.9219ZM17.9219 73H14.5586V56.1953H21.2852C21.9023 56.1953 22.4961 56.2773 23.0664 56.4414C23.6367 56.5977 24.168 56.8242 24.6602 57.1211C25.1602 57.4102 25.6133 57.7617 26.0195 58.1758C26.4336 58.582 26.7852 59.0352 27.0742 59.5352C27.3711 60.0352 27.5977 60.5703 27.7539 61.1406C27.918 61.7109 28 62.3047 28 62.9219C28 63.8438 27.8242 64.7148 27.4727 65.5352C27.1211 66.3477 26.6406 67.0586 26.0312 67.668C25.4219 68.2773 24.707 68.7578 23.8867 69.1094C23.0742 69.4609 22.207 69.6367 21.2852 69.6367H17.9219V73ZM41.793 73H41.0195L39.7773 71.2773C39.4727 71.5508 39.1484 71.8086 38.8047 72.0508C38.4688 72.2852 38.1133 72.4922 37.7383 72.6719C37.3633 72.8438 36.9766 72.9805 36.5781 73.082C36.1875 73.1836 35.7891 73.2344 35.3828 73.2344C34.5 73.2344 33.668 73.0859 32.8867 72.7891C32.1133 72.4922 31.4336 72.0625 30.8477 71.5C30.2695 70.9297 29.8125 70.2344 29.4766 69.4141C29.1406 68.5938 28.9727 67.6602 28.9727 66.6133C28.9727 65.6367 29.1406 64.7422 29.4766 63.9297C29.8125 63.1094 30.2695 62.4062 30.8477 61.8203C31.4336 61.2344 32.1133 60.7812 32.8867 60.4609C33.668 60.1328 34.5 59.9688 35.3828 59.9688C35.7891 59.9688 36.1914 60.0195 36.5898 60.1211C36.9883 60.2227 37.375 60.3633 37.75 60.543C38.125 60.7227 38.4805 60.9336 38.8164 61.1758C39.1602 61.418 39.4805 61.6797 39.7773 61.9609L41.0195 60.4727H41.793V73ZM38.5703 66.6133C38.5703 66.1758 38.4844 65.7539 38.3125 65.3477C38.1484 64.9336 37.9219 64.5703 37.6328 64.2578C37.3438 63.9375 37.0039 63.6836 36.6133 63.4961C36.2305 63.3008 35.8203 63.2031 35.3828 63.2031C34.9453 63.2031 34.5312 63.2773 34.1406 63.4258C33.7578 63.5742 33.4219 63.793 33.1328 64.082C32.8516 64.3711 32.6289 64.7305 32.4648 65.1602C32.3008 65.582 32.2188 66.0664 32.2188 66.6133C32.2188 67.1602 32.3008 67.6484 32.4648 68.0781C32.6289 68.5 32.8516 68.8555 33.1328 69.1445C33.4219 69.4336 33.7578 69.6523 34.1406 69.8008C34.5312 69.9492 34.9453 70.0234 35.3828 70.0234C35.8203 70.0234 36.2305 69.9297 36.6133 69.7422C37.0039 69.5469 37.3438 69.293 37.6328 68.9805C37.9219 68.6602 38.1484 68.2969 38.3125 67.8906C38.4844 67.4766 38.5703 67.0508 38.5703 66.6133ZM47.4648 77.7812H44.2422V60.4492H45.0156L46.293 61.9609C46.582 61.6875 46.8984 61.4297 47.2422 61.1875C47.5859 60.9453 47.9414 60.7383 48.3086 60.5664C48.6836 60.3867 49.0703 60.2461 49.4688 60.1445C49.8672 60.043 50.2695 59.9922 50.6758 59.9922C51.5586 59.9922 52.3867 60.1523 53.1602 60.4727C53.9414 60.7852 54.6211 61.2305 55.1992 61.8086C55.7852 62.3867 56.2461 63.0859 56.582 63.9062C56.918 64.7188 57.0859 65.6211 57.0859 66.6133C57.0859 67.6445 56.918 68.5742 56.582 69.4023C56.2461 70.2227 55.7852 70.9219 55.1992 71.5C54.6211 72.0703 53.9414 72.5078 53.1602 72.8125C52.3867 73.1172 51.5586 73.2695 50.6758 73.2695C50.3945 73.2695 50.1133 73.2383 49.832 73.1758C49.5586 73.1133 49.2852 73.0312 49.0117 72.9297C48.7461 72.8203 48.4805 72.6992 48.2148 72.5664C47.957 72.4336 47.707 72.2969 47.4648 72.1562V77.7812ZM53.875 66.6133C53.875 66.082 53.7891 65.6055 53.6172 65.1836C53.4531 64.7617 53.2266 64.4062 52.9375 64.1172C52.6484 63.8203 52.3086 63.5938 51.918 63.4375C51.5273 63.2812 51.1133 63.2031 50.6758 63.2031C50.2383 63.2031 49.8242 63.2812 49.4336 63.4375C49.0508 63.5938 48.7148 63.8203 48.4258 64.1172C48.1367 64.4062 47.9062 64.7617 47.7344 65.1836C47.5703 65.6055 47.4883 66.082 47.4883 66.6133C47.4883 67.1211 47.5703 67.5859 47.7344 68.0078C47.9062 68.4297 48.1367 68.7891 48.4258 69.0859C48.7148 69.3828 49.0508 69.6133 49.4336 69.7773C49.8242 69.9414 50.2383 70.0234 50.6758 70.0234C51.1133 70.0234 51.5273 69.9414 51.918 69.7773C52.3086 69.6133 52.6484 69.3828 52.9375 69.0859C53.2266 68.7891 53.4531 68.4297 53.6172 68.0078C53.7891 67.5859 53.875 67.1211 53.875 66.6133ZM63.8594 69.9297C63.9844 69.9688 64.1094 69.9961 64.2344 70.0117C64.3594 70.0195 64.4844 70.0234 64.6094 70.0234C64.9219 70.0234 65.2227 69.9805 65.5117 69.8945C65.8008 69.8086 66.0703 69.6875 66.3203 69.5312C66.5781 69.3672 66.8047 69.1719 67 68.9453C67.2031 68.7109 67.3672 68.4531 67.4922 68.1719L69.8359 70.5273C69.5391 70.9492 69.1953 71.3281 68.8047 71.6641C68.4219 72 68.0039 72.2852 67.5508 72.5195C67.1055 72.7539 66.6328 72.9297 66.1328 73.0469C65.6406 73.1719 65.1328 73.2344 64.6094 73.2344C63.7266 73.2344 62.8945 73.0703 62.1133 72.7422C61.3398 72.4141 60.6602 71.957 60.0742 71.3711C59.4961 70.7852 59.0391 70.0898 58.7031 69.2852C58.3672 68.4727 58.1992 67.582 58.1992 66.6133C58.1992 65.6211 58.3672 64.7148 58.7031 63.8945C59.0391 63.0742 59.4961 62.375 60.0742 61.7969C60.6602 61.2188 61.3398 60.7695 62.1133 60.4492C62.8945 60.1289 63.7266 59.9688 64.6094 59.9688C65.1328 59.9688 65.6445 60.0312 66.1445 60.1562C66.6445 60.2812 67.1172 60.4609 67.5625 60.6953C68.0156 60.9297 68.4375 61.2188 68.8281 61.5625C69.2188 61.8984 69.5625 62.2773 69.8594 62.6992L63.8594 69.9297ZM65.5 63.332C65.3516 63.2773 65.2031 63.2422 65.0547 63.2266C64.9141 63.2109 64.7656 63.2031 64.6094 63.2031C64.1719 63.2031 63.7578 63.2852 63.3672 63.4492C62.9844 63.6055 62.6484 63.832 62.3594 64.1289C62.0781 64.4258 61.8555 64.7852 61.6914 65.207C61.5273 65.6211 61.4453 66.0898 61.4453 66.6133C61.4453 66.7305 61.4492 66.8633 61.457 67.0117C61.4727 67.1602 61.4922 67.3125 61.5156 67.4688C61.5469 67.6172 61.582 67.7617 61.6211 67.9023C61.6602 68.043 61.7109 68.168 61.7734 68.2773L65.5 63.332ZM74.6758 73H71.4766V60.4492H72.25L73.3047 61.9375C73.8203 61.4688 74.4062 61.1094 75.0625 60.8594C75.7188 60.6016 76.3984 60.4727 77.1016 60.4727H79.9258V63.6602H77.1016C76.7656 63.6602 76.4492 63.7227 76.1523 63.8477C75.8555 63.9727 75.5977 64.1445 75.3789 64.3633C75.1602 64.582 74.9883 64.8398 74.8633 65.1367C74.7383 65.4336 74.6758 65.75 74.6758 66.0859V73ZM83.8281 71.8047C83.8281 72.1484 83.793 72.5195 83.7227 72.918C83.6602 73.3086 83.5547 73.6953 83.4062 74.0781C83.2656 74.4688 83.0781 74.8359 82.8438 75.1797C82.6172 75.5312 82.3398 75.8281 82.0117 76.0703L80.7344 75.1797C80.9531 74.9297 81.1172 74.6914 81.2266 74.4648C81.3359 74.2461 81.4219 74.0234 81.4844 73.7969C81.25 73.75 81.0312 73.668 80.8281 73.5508C80.625 73.4336 80.4492 73.2852 80.3008 73.1055C80.1523 72.9336 80.0352 72.7383 79.9492 72.5195C79.8633 72.293 79.8203 72.0547 79.8203 71.8047C79.8203 71.5312 79.8711 71.2734 79.9727 71.0312C80.082 70.7891 80.2266 70.5781 80.4062 70.3984C80.5938 70.2188 80.8047 70.0781 81.0391 69.9766C81.2812 69.8672 81.5391 69.8125 81.8125 69.8125C82.0938 69.8125 82.3555 69.8672 82.5977 69.9766C82.8477 70.0781 83.0625 70.2188 83.2422 70.3984C83.4297 70.5781 83.5742 70.7891 83.6758 71.0312C83.7773 71.2734 83.8281 71.5312 83.8281 71.8047ZM13.5742 91.2344C13.5742 90.5391 13.707 89.8867 13.9727 89.2773C14.2383 88.668 14.5977 88.1367 15.0508 87.6836C15.5117 87.2227 16.0469 86.8594 16.6562 86.5938C17.2656 86.3281 17.918 86.1953 18.6133 86.1953H26.3242V89.5586H18.6133C18.3789 89.5586 18.1602 89.6016 17.957 89.6875C17.7539 89.7734 17.5742 89.8945 17.418 90.0508C17.2695 90.1992 17.1523 90.375 17.0664 90.5781C16.9805 90.7812 16.9375 91 16.9375 91.2344C16.9375 91.4688 16.9805 91.6914 17.0664 91.9023C17.1523 92.1055 17.2695 92.2852 17.418 92.4414C17.5742 92.5898 17.7539 92.707 17.957 92.793C18.1602 92.8789 18.3789 92.9219 18.6133 92.9219H21.9766C22.6719 92.9219 23.3242 93.0547 23.9336 93.3203C24.5508 93.5781 25.0859 93.9375 25.5391 94.3984C26 94.8516 26.3594 95.3867 26.6172 96.0039C26.8828 96.6133 27.0156 97.2656 27.0156 97.9609C27.0156 98.6562 26.8828 99.3086 26.6172 99.918C26.3594 100.527 26 101.062 25.5391 101.523C25.0859 101.977 24.5508 102.336 23.9336 102.602C23.3242 102.867 22.6719 103 21.9766 103H14.5117V99.6367H21.9766C22.2109 99.6367 22.4297 99.5938 22.6328 99.5078C22.8359 99.4219 23.0117 99.3047 23.1602 99.1562C23.3164 99 23.4375 98.8203 23.5234 98.6172C23.6094 98.4141 23.6523 98.1953 23.6523 97.9609C23.6523 97.7266 23.6094 97.5078 23.5234 97.3047C23.4375 97.1016 23.3164 96.9258 23.1602 96.7773C23.0117 96.6211 22.8359 96.5 22.6328 96.4141C22.4297 96.3281 22.2109 96.2852 21.9766 96.2852H18.6133C17.918 96.2852 17.2656 96.1523 16.6562 95.8867C16.0469 95.6211 15.5117 95.2617 15.0508 94.8086C14.5977 94.3477 14.2383 93.8125 13.9727 93.2031C13.707 92.5859 13.5742 91.9297 13.5742 91.2344ZM39.8594 92.9453L37.5156 95.3008C37.3984 94.9727 37.2383 94.6797 37.0352 94.4219C36.832 94.1562 36.6016 93.9336 36.3438 93.7539C36.0938 93.5742 35.8203 93.4375 35.5234 93.3438C35.2266 93.25 34.9219 93.2031 34.6094 93.2031C34.1719 93.2031 33.7578 93.293 33.3672 93.4727C32.9844 93.6523 32.6484 93.9062 32.3594 94.2344C32.0781 94.5547 31.8555 94.9375 31.6914 95.3828C31.5273 95.8281 31.4453 96.3203 31.4453 96.8594C31.4453 97.2969 31.5273 97.707 31.6914 98.0898C31.8555 98.4727 32.0781 98.8086 32.3594 99.0977C32.6484 99.3867 32.9844 99.6133 33.3672 99.7773C33.7578 99.9414 34.1719 100.023 34.6094 100.023C34.9219 100.023 35.2227 99.9805 35.5117 99.8945C35.8008 99.8086 36.0703 99.6875 36.3203 99.5312C36.5781 99.3672 36.8047 99.1719 37 98.9453C37.2031 98.7109 37.3672 98.4531 37.4922 98.1719L39.8359 100.527C39.5391 100.949 39.1953 101.328 38.8047 101.664C38.4219 102 38.0039 102.285 37.5508 102.52C37.1055 102.754 36.6328 102.93 36.1328 103.047C35.6406 103.172 35.1328 103.234 34.6094 103.234C33.7266 103.234 32.8945 103.07 32.1133 102.742C31.3398 102.406 30.6602 101.949 30.0742 101.371C29.4961 100.793 29.0391 100.117 28.7031 99.3438C28.3672 98.5703 28.1992 97.7422 28.1992 96.8594C28.1992 95.8984 28.3672 95 28.7031 94.1641C29.0391 93.3281 29.4961 92.6016 30.0742 91.9844C30.6602 91.3594 31.3398 90.8672 32.1133 90.5078C32.8945 90.1484 33.7266 89.9688 34.6094 89.9688C35.1328 89.9688 35.6445 90.0352 36.1445 90.168C36.6523 90.3008 37.1328 90.4961 37.5859 90.7539C38.0469 91.0039 38.4688 91.3125 38.8516 91.6797C39.2422 92.0469 39.5781 92.4688 39.8594 92.9453ZM45.2031 87.0391C45.2031 87.3359 45.1445 87.6133 45.0273 87.8711C44.918 88.1289 44.7656 88.3555 44.5703 88.5508C44.375 88.7383 44.1445 88.8906 43.8789 89.0078C43.6211 89.1172 43.3438 89.1719 43.0469 89.1719C42.75 89.1719 42.4688 89.1172 42.2031 89.0078C41.9453 88.8906 41.7188 88.7383 41.5234 88.5508C41.3359 88.3555 41.1836 88.1289 41.0664 87.8711C40.957 87.6133 40.9023 87.3359 40.9023 87.0391C40.9023 86.75 40.957 86.4766 41.0664 86.2188C41.1836 85.9531 41.3359 85.7266 41.5234 85.5391C41.7188 85.3438 41.9453 85.1914 42.2031 85.082C42.4688 84.9648 42.75 84.9062 43.0469 84.9062C43.3438 84.9062 43.6211 84.9648 43.8789 85.082C44.1445 85.1914 44.375 85.3438 44.5703 85.5391C44.7656 85.7266 44.918 85.9531 45.0273 86.2188C45.1445 86.4766 45.2031 86.75 45.2031 87.0391ZM44.6523 103H41.4297V90.4492H44.6523V103ZM53.9922 103H46.6797V99.8125H53.9922C54.2109 99.8125 54.3984 99.7344 54.5547 99.5781C54.7109 99.4219 54.7891 99.2344 54.7891 99.0156C54.7891 98.7891 54.7109 98.6406 54.5547 98.5703C54.3984 98.5 54.2109 98.4648 53.9922 98.4648H50.6641C50.1094 98.4648 49.5898 98.3594 49.1055 98.1484C48.6211 97.9375 48.1992 97.6523 47.8398 97.293C47.4805 96.9258 47.1953 96.5 46.9844 96.0156C46.7812 95.5312 46.6797 95.0117 46.6797 94.457C46.6797 93.9023 46.7812 93.3828 46.9844 92.8984C47.1953 92.4141 47.4805 91.9922 47.8398 91.6328C48.1992 91.2734 48.6211 90.9922 49.1055 90.7891C49.5898 90.5781 50.1094 90.4727 50.6641 90.4727H57.1445V93.6602H50.6641C50.4453 93.6602 50.2578 93.7383 50.1016 93.8945C49.9453 94.0508 49.8672 94.2383 49.8672 94.457C49.8672 94.6836 49.9453 94.8789 50.1016 95.043C50.2578 95.1992 50.4453 95.2773 50.6641 95.2773H53.9922C54.5391 95.2773 55.0547 95.3711 55.5391 95.5586C56.0234 95.7383 56.4453 95.9922 56.8047 96.3203C57.1641 96.6484 57.4492 97.043 57.6602 97.5039C57.8711 97.9648 57.9766 98.4688 57.9766 99.0156C57.9766 99.5703 57.8711 100.09 57.6602 100.574C57.4492 101.051 57.1641 101.473 56.8047 101.84C56.4453 102.199 56.0234 102.484 55.5391 102.695C55.0547 102.898 54.5391 103 53.9922 103ZM66.5781 103H59.2656V99.8125H66.5781C66.7969 99.8125 66.9844 99.7344 67.1406 99.5781C67.2969 99.4219 67.375 99.2344 67.375 99.0156C67.375 98.7891 67.2969 98.6406 67.1406 98.5703C66.9844 98.5 66.7969 98.4648 66.5781 98.4648H63.25C62.6953 98.4648 62.1758 98.3594 61.6914 98.1484C61.207 97.9375 60.7852 97.6523 60.4258 97.293C60.0664 96.9258 59.7812 96.5 59.5703 96.0156C59.3672 95.5312 59.2656 95.0117 59.2656 94.457C59.2656 93.9023 59.3672 93.3828 59.5703 92.8984C59.7812 92.4141 60.0664 91.9922 60.4258 91.6328C60.7852 91.2734 61.207 90.9922 61.6914 90.7891C62.1758 90.5781 62.6953 90.4727 63.25 90.4727H69.7305V93.6602H63.25C63.0312 93.6602 62.8438 93.7383 62.6875 93.8945C62.5312 94.0508 62.4531 94.2383 62.4531 94.457C62.4531 94.6836 62.5312 94.8789 62.6875 95.043C62.8438 95.1992 63.0312 95.2773 63.25 95.2773H66.5781C67.125 95.2773 67.6406 95.3711 68.125 95.5586C68.6094 95.7383 69.0312 95.9922 69.3906 96.3203C69.75 96.6484 70.0352 97.043 70.2461 97.5039C70.457 97.9648 70.5625 98.4688 70.5625 99.0156C70.5625 99.5703 70.457 100.09 70.2461 100.574C70.0352 101.051 69.75 101.473 69.3906 101.84C69.0312 102.199 68.6094 102.484 68.125 102.695C67.6406 102.898 67.125 103 66.5781 103ZM84.4023 96.6133C84.4023 97.5508 84.2344 98.4258 83.8984 99.2383C83.5625 100.043 83.1055 100.742 82.5273 101.336C81.9492 101.922 81.2695 102.387 80.4883 102.73C79.7148 103.066 78.8828 103.234 77.9922 103.234C77.1094 103.234 76.2773 103.066 75.4961 102.73C74.7227 102.387 74.043 101.922 73.457 101.336C72.8789 100.742 72.4219 100.043 72.0859 99.2383C71.75 98.4258 71.582 97.5508 71.582 96.6133C71.582 95.6602 71.75 94.7773 72.0859 93.9648C72.4219 93.1523 72.8789 92.4531 73.457 91.8672C74.043 91.2734 74.7227 90.8086 75.4961 90.4727C76.2773 90.1367 77.1094 89.9688 77.9922 89.9688C78.8828 89.9688 79.7148 90.1289 80.4883 90.4492C81.2695 90.7617 81.9492 91.2109 82.5273 91.7969C83.1055 92.375 83.5625 93.0742 83.8984 93.8945C84.2344 94.707 84.4023 95.6133 84.4023 96.6133ZM81.1797 96.6133C81.1797 96.0977 81.0938 95.6328 80.9219 95.2188C80.7578 94.7969 80.5312 94.4375 80.2422 94.1406C79.9531 93.8359 79.6133 93.6055 79.2227 93.4492C78.8398 93.2852 78.4297 93.2031 77.9922 93.2031C77.5547 93.2031 77.1406 93.2852 76.75 93.4492C76.3672 93.6055 76.0312 93.8359 75.7422 94.1406C75.4609 94.4375 75.2383 94.7969 75.0742 95.2188C74.9102 95.6328 74.8281 96.0977 74.8281 96.6133C74.8281 97.0977 74.9102 97.5469 75.0742 97.9609C75.2383 98.375 75.4609 98.7344 75.7422 99.0391C76.0312 99.3438 76.3672 99.5859 76.75 99.7656C77.1406 99.9375 77.5547 100.023 77.9922 100.023C78.4297 100.023 78.8398 99.9414 79.2227 99.7773C79.6133 99.6133 79.9531 99.3828 80.2422 99.0859C80.5312 98.7891 80.7578 98.4297 80.9219 98.0078C81.0938 97.5859 81.1797 97.1211 81.1797 96.6133ZM89.3711 103H86.1719V90.4492H86.9453L88 91.9375C88.5156 91.4688 89.1016 91.1094 89.7578 90.8594C90.4141 90.6016 91.0938 90.4727 91.7969 90.4727H94.6211V93.6602H91.7969C91.4609 93.6602 91.1445 93.7227 90.8477 93.8477C90.5508 93.9727 90.293 94.1445 90.0742 94.3633C89.8555 94.582 89.6836 94.8398 89.5586 95.1367C89.4336 95.4336 89.3711 95.75 89.3711 96.0859V103ZM102.859 103H95.5469V99.8125H102.859C103.078 99.8125 103.266 99.7344 103.422 99.5781C103.578 99.4219 103.656 99.2344 103.656 99.0156C103.656 98.7891 103.578 98.6406 103.422 98.5703C103.266 98.5 103.078 98.4648 102.859 98.4648H99.5312C98.9766 98.4648 98.457 98.3594 97.9727 98.1484C97.4883 97.9375 97.0664 97.6523 96.707 97.293C96.3477 96.9258 96.0625 96.5 95.8516 96.0156C95.6484 95.5312 95.5469 95.0117 95.5469 94.457C95.5469 93.9023 95.6484 93.3828 95.8516 92.8984C96.0625 92.4141 96.3477 91.9922 96.707 91.6328C97.0664 91.2734 97.4883 90.9922 97.9727 90.7891C98.457 90.5781 98.9766 90.4727 99.5312 90.4727H106.012V93.6602H99.5312C99.3125 93.6602 99.125 93.7383 98.9688 93.8945C98.8125 94.0508 98.7344 94.2383 98.7344 94.457C98.7344 94.6836 98.8125 94.8789 98.9688 95.043C99.125 95.1992 99.3125 95.2773 99.5312 95.2773H102.859C103.406 95.2773 103.922 95.3711 104.406 95.5586C104.891 95.7383 105.312 95.9922 105.672 96.3203C106.031 96.6484 106.316 97.043 106.527 97.5039C106.738 97.9648 106.844 98.4688 106.844 99.0156C106.844 99.5703 106.738 100.09 106.527 100.574C106.316 101.051 106.031 101.473 105.672 101.84C105.312 102.199 104.891 102.484 104.406 102.695C103.922 102.898 103.406 103 102.859 103ZM111.941 98.8516H109.328L108.613 86.1953H112.668L111.941 98.8516ZM112.645 101.805C112.645 102.086 112.59 102.352 112.48 102.602C112.379 102.844 112.238 103.055 112.059 103.234C111.879 103.414 111.668 103.555 111.426 103.656C111.184 103.766 110.926 103.82 110.652 103.82C110.371 103.82 110.109 103.766 109.867 103.656C109.625 103.555 109.41 103.414 109.223 103.234C109.043 103.055 108.898 102.844 108.789 102.602C108.688 102.352 108.637 102.086 108.637 101.805C108.637 101.531 108.688 101.273 108.789 101.031C108.898 100.789 109.043 100.578 109.223 100.398C109.41 100.219 109.625 100.078 109.867 99.9766C110.109 99.8672 110.371 99.8125 110.652 99.8125C110.926 99.8125 111.184 99.8672 111.426 99.9766C111.668 100.078 111.879 100.219 112.059 100.398C112.238 100.578 112.379 100.789 112.48 101.031C112.59 101.273 112.645 101.531 112.645 101.805Z" fill="black"/>
<rect x="1" y="1" width="126" height="126" stroke="black" stroke-width="2"/>
</svg>
